<?xml version="1.0" encoding="UTF-8"?><svg id="b" xmlns="http://www.w3.org/2000/svg" xmlns:xlink="http://www.w3.org/1999/xlink" viewBox="0 0 256 100"><defs><style>.h{filter:url(#d);}.i{filter:url(#f);}.j{fill:#4f4f4f;}.j,.k,.l,.m,.n,.o,.p,.q,.r,.s,.t{stroke-width:0px;}.k{fill:#823e00;}.l{fill:#6d401b;}.m{fill:#724e2a;}.n{fill:#c6c6c6;}.o{fill:#dbd886;}.p{fill:#aaa;}.q{fill:#934d00;}.r{fill:#fff;}.s{fill:#ffff85;}.t{fill:#eaeaea;}</style><filter id="d" filterUnits="userSpaceOnUse"><feOffset dx="-1" dy="1.5"/><feGaussianBlur result="e" stdDeviation="0"/><feFlood flood-color="#dd7a92" flood-opacity=".73"/><feComposite in2="e" operator="in"/><feComposite in="SourceGraphic"/></filter><filter id="f" filterUnits="userSpaceOnUse"><feOffset dx="1" dy="1.5"/><feGaussianBlur result="g" stdDeviation="0"/><feFlood flood-color="#9b9bc9" flood-opacity=".73"/><feComposite in2="g" operator="in"/><feComposite in="SourceGraphic"/></filter></defs><g id="c"><g class="h"><path class="r" d="m69,58.99c-1.31.11-2.2.02-2.66-.18-.14-3.96-.34-6.68-.69-8.13-.58-2.37-1.96-4.09-4.08-5.21-1.97-.96-4.21-1.29-6.7-.99.21,5.08-.6,9.58-2.29,13.57,1.09,1.73,1.95,3.17,2.62,4.23-.6.71-1.38,1.31-2.34,1.75-.93-1.31-1.7-2.35-2.2-3.16-1.86,2.25-3.06,3.66-3.64,4.21-1.56,1.4-3.19,2.26-4.94,2.68s-3.15.1-4.44-.97c-1.19-.89-1.98-2.24-2.42-4.08-.59-2.42-.19-5.23,1.23-8.45,1.28-2.77,2.95-5.17,5.04-7.11l-4.11-6.79c.54-.75,1.36-1.36,2.5-1.74l4.36,6.37c1.75-1.25,4.06-2.27,6.85-3.04-.27-1.52-.46-2.76-.65-3.74.73-.18,1.2-.34,1.44-.4.29-.07.74-.13,1.44-.2.25.61.47,1.32.67,2.14.13.53.21,1.08.33,1.56,3.4-.36,6.32.06,8.76,1.26,2.79,1.37,4.58,3.66,5.35,6.85.7,2.9.86,6.09.57,9.55Zm-25.68-9.1c-1.59,1.46-2.93,3.33-3.96,5.63-1.12,2.58-1.41,4.75-.97,6.59.19.78.53,1.36,1.06,1.84.53.49,1.08.66,1.71.51,2.47-.6,4.94-2.68,7.45-6.27-2.03-3.1-3.79-5.9-5.29-8.3Zm2.58-2.06l4.54,7.3c.48-1.19.83-2.92,1.06-5.13.18-1.99.24-3.65.16-5.06-2.47.81-4.4,1.73-5.76,2.88Z"/><path class="r" d="m110.86,48.83c-1.31.11-2.2.02-2.66-.18-.14-3.96-.34-6.68-.69-8.13-.58-2.37-1.96-4.09-4.08-5.21-1.97-.96-4.21-1.28-6.7-.99.21,5.08-.6,9.58-2.29,13.57,1.09,1.73,1.95,3.17,2.61,4.23-.6.71-1.37,1.31-2.34,1.75-.93-1.31-1.7-2.35-2.2-3.16-1.86,2.25-3.06,3.66-3.64,4.21-1.56,1.4-3.19,2.26-4.94,2.68s-3.15.1-4.44-.97c-1.19-.89-1.98-2.24-2.42-4.08-.59-2.42-.19-5.23,1.23-8.45,1.28-2.77,2.95-5.17,5.04-7.11l-4.11-6.79c.54-.75,1.36-1.36,2.5-1.74l4.36,6.37c1.75-1.25,4.06-2.27,6.85-3.05-.27-1.52-.46-2.76-.65-3.74.73-.18,1.2-.34,1.44-.4.29-.07.74-.13,1.44-.2.25.61.47,1.32.67,2.14.13.53.21,1.08.33,1.56,3.4-.36,6.32.06,8.76,1.26,2.79,1.37,4.58,3.66,5.35,6.85.7,2.9.86,6.09.57,9.55Zm-25.68-9.1c-1.59,1.46-2.93,3.33-3.96,5.63-1.12,2.58-1.41,4.75-.97,6.59.19.78.53,1.36,1.06,1.84.53.49,1.08.66,1.71.51,2.47-.6,4.94-2.68,7.45-6.27-2.03-3.1-3.79-5.9-5.29-8.3Zm2.58-2.06l4.54,7.3c.48-1.19.83-2.92,1.06-5.13.18-1.99.24-3.65.16-5.06-2.47.81-4.4,1.73-5.76,2.88Z"/></g><g class="i"><path class="r" d="m125.03,59.11c-2.44,2.03-3.93,3.21-4.48,3.65-.34-.09-.71-.38-1.1-.93-.45-.45-.71-.83-.72-1.14,1.09-1.63,3.83-4.13,8.22-7.43.29.13.6.42,1,.86.44.55.74.94.91,1.26-.25.42-1.5,1.69-3.83,3.72Zm27.46-11.76c-1.3-.05-2.98-.24-5.16-.49-2.47-.28-4.65-.53-6.42-.83-.22,12.51-.38,19.61-.53,21.34-.03.3-1.19.32-3.46.06-1.58-.18-2.86-.43-3.88-.69-.08-.21-.03-.61.04-1.25.06-.54.16-.98.34-1.26l3.62.36.41-18.95c-6.96-.94-11.99-1.72-15.08-2.27-.11-.31-.11-.82-.03-1.51.07-.64.18-1.13.37-1.46,2.18.25,5.1.53,8.86.96l3.42.39c1.63.23,2.47.33,2.57.34l.15-7.95c.67-.17,1.33-.25,1.98-.18.4.05.79.14,1.12.28l.11,8.28c2.18.25,6.17.85,11.93,1.81,0,.8.05,1.36.01,1.66-.05.4-.2.88-.36,1.36Zm-1.61-9.61c-.83.21-1.39.29-1.63.26-.2-.02-.36-.39-.46-1.21-.13-.66-.22-1.18-.18-1.52.89-.35,1.82-.6,2.79-.68.28.18.53,1.06.84,2.7-.12.14-.54.29-1.35.45Zm2.86,23.28c-.56.49-.94.75-1.24.76-1.75-1.4-3.26-3.08-4.44-5.07.13-.29.43-.65.88-1.1.5-.44.88-.7,1.08-.68.75.44,2.22,2.11,4.5,4.97-.03.3-.33.67-.78,1.11Zm3.15-24.55c-.72.17-1.23.26-1.53.23-.2-.02-.35-.44-.46-1.21-.22-.73-.26-1.23-.23-1.53,1.09-.38,1.97-.58,2.67-.6.1.01.26.38.48,1.11.17.72.26,1.23.32,1.54-.12.14-.53.29-1.26.46Z"/><path class="r" d="m175.23,46.54c-4,4.71-6.75,7.75-8.21,9.14-.39-.14-.75-.44-1.2-.94-.56-.36-.87-.7-.99-1.02.91-1.8,5.78-7.61,14.58-17.49.91.4,1.68,1.04,2.39,1.93-.73,1.12-2.9,3.93-6.57,8.37Zm12.55,16.57c-5.41,7-8.43,10.62-9.08,11.05-.38-.15-.85-.45-1.45-.87-.6-.47-.9-.86-.98-1.12l4.92-6.61-7.45-5.46c.25-.87.85-1.71,1.73-2.46,3.98,2.46,6.64,4.17,7.94,5.07l8.65-11.24c-3.82-2.09-7.42-3.95-10.78-5.64.18-1.18.58-2.04,1.24-2.56,2.07.79,4.6,1.88,7.55,3.27,3.81,1.79,6.12,3,6.9,3.69-.8,1.71-3.89,5.97-9.19,12.89Z"/><path class="r" d="m238.68,65.5c-9.32,3.45-18.7,6.59-28.05,9.43-.5-.86-.93-1.91-1.25-3.1,9.44-3.64,18.86-6.67,28.17-9.22.56.82.95,1.76,1.12,2.89Zm-15.49-14.95c-.4.86-.95,1.7-1.75,2.56-2.84-1.03-5.91-2.68-9.27-4.92.37-1.06.88-2.01,1.53-2.88,3.4,1.39,6.56,3.1,9.48,5.24Z"/></g><path class="t" d="m111.27,71.44c-8.18,0-14.81-2.73-14.81-6.1v9.91c0,3.37,6.62,6.1,14.81,6.1s14.81-2.73,14.81-6.1v-9.91c0,3.37-6.62,6.1-14.81,6.1Z"/><path class="n" d="m126.07,65.36v9.9c0,.23-.02.48-.11.71-.02.16-.09.32-.16.46-.11.25-.28.5-.48.76-.11.16-.25.3-.41.44-.3.3-.64.57-1.03.83-.21.14-.41.28-.64.39-.23.11-.46.25-.71.37-1.7.83-3.94,1.47-6.51,1.83v-15.68h10.06Z"/><path class="t" d="m126.03,64.97c0-.11-.02-.23-.07-.32,0-.07-.02-.16-.07-.23-.02-.07-.05-.14-.07-.18-.11-.28-.3-.53-.5-.8-.11-.16-.25-.3-.41-.44-1.03-1.01-2.68-1.88-4.74-2.5-.21-.07-.41-.14-.62-.18-.46-.14-.94-.25-1.44-.37h-.02c-.25-.07-.5-.11-.76-.16s-.5-.09-.78-.11c-.16-.05-.32-.07-.48-.07l-.02-.02c-1.49-.21-3.09-.32-4.77-.32-1.51,0-2.93.09-4.31.28h-.02c-.41.05-.8.09-1.19.16h-.02c-.46.09-.87.16-1.31.25-.5.11-.99.23-1.44.37h-.02c-.21.07-.41.11-.62.21-3.58,1.08-5.87,2.84-5.87,4.84,0,.66.28,1.33.78,1.93.09.16.23.3.39.44.16.18.37.37.6.55.18.11.39.25.6.39.23.14.48.3.76.44s.55.28.87.41c.18.09.39.18.6.25.28.11.55.21.83.3.32.11.66.23,1.03.32.11.02.23.07.34.09.11.05.25.07.41.11.05,0,.09.02.14.02.5.14,1.05.25,1.6.34.62.11,1.26.21,1.93.28,1.26.16,2.59.23,3.94.23.6,0,1.21-.02,1.81-.05.57-.02,1.17-.07,1.74-.14.41-.05.8-.09,1.19-.14.37-.05.73-.11,1.08-.16.14-.02.3-.07.44-.09.3-.05.6-.11.87-.18.85-.18,1.65-.41,2.38-.66.25-.09.48-.18.71-.28.09-.02.16-.05.25-.09.11-.05.23-.11.34-.16.48-.18.89-.41,1.28-.64.11-.05.23-.11.32-.18.28-.18.53-.34.73-.53.34-.28.64-.57.89-.87.21-.25.39-.53.5-.8.02-.05.05-.11.07-.18.05-.07.05-.14.07-.23.02-.05.02-.09.05-.14,0-.02.02-.07.02-.11,0-.02.02-.05,0-.07.05-.14.05-.25.05-.39s0-.25-.05-.39Zm-4.79.39h-.02l-.41-1.88-.09-.41c.53.44.83.94.83,1.44,0,.3-.09.57-.3.85Zm-19.55-1.88l-.41,1.88c-.18-.28-.28-.55-.28-.85,0-.48.28-.96.76-1.38l-.07.34Z"/><path class="n" d="m126.03,64.97c0-.11-.02-.23-.07-.32,0-.07-.02-.16-.07-.23-.02-.07-.05-.14-.07-.18-.11-.28-.3-.53-.5-.8-.11-.16-.25-.3-.41-.44-1.03-1.01-2.68-1.88-4.74-2.5v-.02c-.21-.05-.41-.11-.62-.16-.46-.14-.94-.25-1.44-.37h-.02c-.25-.07-.5-.11-.76-.16s-.5-.09-.78-.14c-.16-.02-.34-.05-.5-.07l.02.02s.16.14.3.28c.11.09.25.23.41.39.05.07.11.14.18.21.69.8,1.56,2.11,1.79,3.87.05.32.07.66.07,1.01,0,.62-.07,1.19-.21,1.7-.05.23-.11.46-.18.66-.44,1.21-1.12,2.13-1.67,2.73-.34.39-.64.62-.73.69.37-.05.73-.11,1.08-.16.14-.02.3-.07.44-.09.3-.05.6-.11.87-.18.85-.18,1.65-.41,2.38-.66.23-.07.48-.16.71-.25v-.02c.09-.02.16-.05.25-.09h.02c.11-.05.23-.09.32-.14v-.02c.48-.18.89-.41,1.28-.64.11-.07.23-.11.32-.18.28-.18.53-.34.73-.53.37-.28.66-.57.89-.87.21-.25.39-.53.5-.8.02-.05.05-.11.07-.18.05-.07.05-.14.07-.23.02-.05.05-.09.05-.14,0-.02.02-.07.02-.11,0-.02.02-.05,0-.07.05-.14.05-.25.05-.39s0-.25-.05-.39Zm-5.23-1.49l-.09-.41c.53.44.83.94.83,1.44,0,.3-.09.57-.3.85h-.02l-.41-1.88Z"/><path class="p" d="m120.02,59.83c-.21-.05-.41-.11-.62-.16-.23-.07-.46-.14-.71-.18-.6-.14-1.21-.25-1.86-.37-1.72-.28-3.6-.44-5.57-.44s-3.76.14-5.43.41c-.28.05-.53.09-.8.14-.41.07-.83.16-1.21.28-.25.05-.5.09-.73.18-.21.05-.41.09-.62.16-4.01,1.19-6.58,3.19-6.58,5.5v9.9c0,3.74,6.76,6.67,15.38,6.67s15.38-2.93,15.38-6.67v-9.9c0-2.34-2.59-4.33-6.62-5.52Zm5.48,15.42c0,2.13-3.67,4.38-9.49,5.2-1.44.21-3.05.32-4.74.32-8.5,0-14.23-2.86-14.23-5.52v-7.33c.8.87,2.04,1.65,3.58,2.27.3.14.6.25.92.37,2.64.92,6,1.47,9.74,1.47,1.24,0,2.43-.07,3.58-.16.39-.05.78-.09,1.17-.16,1.86-.25,3.53-.64,5-1.15.02,0,.02-.02.02-.02.32-.09.62-.21.89-.34,1.54-.62,2.77-1.4,3.58-2.27v7.33Zm-3.51-6.33c-.16.07-.34.16-.53.23-1.31.55-2.89.99-4.72,1.28-.23.05-.48.09-.73.11-.39.07-.78.11-1.19.14-1.12.11-2.31.18-3.55.18-2.82,0-5.34-.32-7.43-.83-.18-.05-.37-.09-.55-.16-.3-.07-.6-.16-.87-.25-.18-.05-.37-.11-.53-.16-.3-.11-.57-.21-.83-.32-.18-.07-.37-.16-.55-.25-2.2-1.01-3.48-2.29-3.48-3.55,0-1.56,1.9-3.14,5.16-4.22.21-.07.41-.14.64-.21.73-.23,1.54-.41,2.41-.57h.02c.48-.09.99-.18,1.51-.25h.02c.39-.05.8-.09,1.24-.11,1.03-.11,2.11-.16,3.23-.16,1.72,0,3.32.11,4.79.32.25.05.48.07.71.11.16.02.32.05.48.07l.02.02c.87.16,1.67.34,2.41.57.21.05.44.11.62.18,3.28,1.08,5.2,2.68,5.2,4.24,0,1.26-1.26,2.54-3.51,3.58Z"/><path class="j" d="m121.53,64.51c0,.3-.09.57-.3.85h-.02l-.41-1.88-.09-.41c.53.44.83.94.83,1.44Z"/><path class="j" d="m101.75,63.13l-.07.34-.41,1.88c-.18-.28-.28-.55-.28-.85,0-.48.28-.96.76-1.38Z"/><path class="r" d="m98.21,76.09c-.16,0-.29-.13-.29-.29v-1.45c0-.16.13-.29.29-.29s.29.13.29.29v1.45c0,.16-.13.29-.29.29Z"/><path class="r" d="m98.21,73.22c-.16,0-.29-.13-.29-.29v-2.64c0-.16.13-.29.29-.29s.29.13.29.29v2.64c0,.16-.13.29-.29.29Z"/><path class="r" d="m99.64,77.31c-.16,0-.29-.13-.29-.29v-3.06c0-.16.13-.29.29-.29s.29.13.29.29v3.06c0,.16-.13.29-.29.29Z"/><path class="r" d="m99.64,73.13c-.16,0-.29-.13-.29-.29v-1.63c0-.16.13-.29.29-.29s.29.13.29.29v1.63c0,.16-.13.29-.29.29Z"/><path class="r" d="m99.08,64.42c-.07,0-.14-.02-.19-.07-.12-.11-.13-.29-.02-.41.21-.23.46-.46.77-.67.13-.09.31-.06.4.07.09.13.06.31-.07.4-.27.19-.49.38-.67.58-.06.06-.14.1-.21.1Z"/><path class="r" d="m103.48,69.13s-.05,0-.07,0c-3.28-.87-5.16-2.22-5.16-3.72,0-.06,0-.11,0-.17.01-.16.14-.31.31-.26.16.01.27.15.26.31,0,.04,0,.07,0,.11,0,1.2,1.77,2.38,4.73,3.16.15.04.25.2.2.35-.03.13-.15.21-.28.21Z"/><path class="r" d="m101.31,78.26c-.16,0-.29-.13-.29-.29v-1.08c0-.16.13-.29.29-.29s.29.13.29.29v1.08c0,.16-.13.29-.29.29Z"/><path class="r" d="m101.31,76.24c-.16,0-.29-.13-.29-.29v-2.03c0-.16.13-.29.29-.29s.29.13.29.29v2.03c0,.16-.13.29-.29.29Z"/><path class="r" d="m101.31,73.07c-.16,0-.29-.13-.29-.29v-.89c0-.16.13-.29.29-.29s.29.13.29.29v.89c0,.16-.13.29-.29.29Z"/><path class="s" d="m114.68,67.95c-1.05.14-2.2.21-3.42.21-2.59,0-4.95-.34-6.74-.92-.21-.05-.39-.11-.57-.16-.3-.11-.6-.23-.85-.34-.18-.09-.34-.18-.5-.28-.32-.18-.62-.37-.85-.57l.5-2.29c.34.21.69.39,1.08.57.05,0,.07.02.09.02.05.05.09.07.14.07l.02.02c.3.14.62.28.96.39.18.07.34.14.53.18.02.02.05.02.07.02.32.09.64.21.99.28.11.05.23.07.37.09.41.11.83.18,1.28.25.14.05.3.07.46.07.28.07.55.09.87.11.3.05.6.07.92.07.39.05.8.05,1.21.05,1.15,0,2.25-.09,3.28-.28.05.5.07,1.05.11,1.58.02.3.05.57.05.85Z"/><path class="o" d="m120.75,65.91c-.5.44-1.24.83-2.15,1.15-.76.28-1.63.53-2.59.69-.44.09-.87.16-1.33.21,0-.28-.02-.55-.05-.85-.05-.53-.07-1.08-.11-1.58,2.22-.32,4.19-1.01,5.73-1.93l.5,2.31Z"/><path class="k" d="m114.52,65.52c-1.03.18-2.13.28-3.28.28-3.53,0-6.74-.85-8.98-2.2l1.08-5.04c0,1.54,3.55,2.8,7.91,2.8,1.01,0,1.95-.07,2.82-.18.18,1.38.34,2.84.46,4.35Z"/><path class="l" d="m120.25,63.59c-1.54.92-3.51,1.6-5.73,1.93-.11-1.51-.28-2.98-.46-4.35,2.98-.41,5.09-1.42,5.09-2.61l1.1,5.04Z"/><path class="q" d="m119.15,58.55c0,1.54-3.53,2.8-7.91,2.8s-7.91-1.26-7.91-2.8,3.55-2.77,7.91-2.77,7.91,1.26,7.91,2.77Z"/><path class="m" d="m114.07,55.97c1.72.52,2.89,1.48,2.89,2.58s-1.17,2.08-2.89,2.6c2.97-.4,5.08-1.42,5.08-2.6s-2.11-2.18-5.08-2.58Z"/><path class="r" d="m107.43,57.46c-.13,0-.25-.09-.28-.22-.03-.16.06-.31.22-.34.25-.06.51-.11.79-.15.17-.01.3.08.33.24.02.16-.08.3-.24.33-.26.04-.51.09-.75.14-.02,0-.04,0-.06,0Z"/><path class="r" d="m107.78,60.32s-.04,0-.05,0c-1.12-.21-3-.73-3-1.75,0-.55.55-1.02,1.62-1.39.15-.05.31.03.36.18.05.15-.03.31-.18.36-.91.31-1.23.65-1.23.84,0,.34.79.86,2.54,1.19.16.03.26.18.23.34-.03.14-.15.23-.28.23Z"/><path class="r" d="m103.63,64.53l-.53,2.2c-.18-.09-.34-.18-.5-.28l.48-2.06c.05-.14.14-.23.25-.23.05,0,.07.02.09.02.05.05.09.07.14.07l.02.02c.05.07.07.16.05.25Z"/><path class="r" d="m103.8,62.91s-.04,0-.07,0c-.15-.04-.25-.19-.21-.34l.22-.95c.04-.15.19-.25.34-.21.15.04.25.19.21.34l-.22.95c-.03.13-.15.22-.28.22Z"/><path class="r" d="m104.83,65.93l-.3,1.31c-.21-.05-.39-.11-.57-.16l.32-1.28c.02-.16.18-.25.34-.23.14.05.25.21.21.37Z"/><path class="r" d="m104.77,65.19s-.04,0-.07,0c-.15-.04-.25-.19-.21-.35l.59-2.49c.04-.15.19-.24.34-.21.15.04.25.19.21.35l-.59,2.49c-.03.13-.15.22-.28.22Z"/><path class="p" d="m120.8,63.48l-.09-.41-.18-.83-.8-3.76c-.09-2.13-4.42-3.28-8.48-3.28s-8.39,1.15-8.48,3.28l-.83,3.8-.18.85-.07.34-.41,1.88c.14.18.28.37.48.53l.5-2.29.21-.96.16-.73.71-3.35c0-1.51,3.55-2.77,7.91-2.77.3,0,.6,0,.89.02.23,0,.46.02.69.05.09,0,.16,0,.25.02.34.02.66.07.99.11.07,0,.14.02.21.02h.07c.25.02.46.07.69.11.39.07.73.16,1.08.25.07.02.11.05.18.07.16.05.3.09.46.14.21.07.41.14.6.23.14.05.28.11.39.16.14.07.25.14.34.21.09.05.18.09.25.16.05.02.09.05.11.09.11.07.23.16.32.28.02.02.05.05.07.07.07.09.11.16.16.23.05.09.09.18.11.28.02.09.05.18.05.28l.73,3.32.16.73.21.99.5,2.31c.21-.16.37-.34.46-.53v-.02l-.41-1.88Z"/><path class="p" d="m122.11,64.51c0,.3-.07.6-.21.85-.11.28-.3.53-.53.73-.14.18-.3.32-.48.41-.64.48-1.49.89-2.48,1.21-.73.25-1.54.44-2.41.6-.41.09-.85.16-1.31.18-1.12.16-2.29.23-3.44.23-2.41,0-4.9-.32-6.88-.92-.18-.07-.39-.11-.55-.18h-.02c-.3-.11-.57-.23-.83-.34-.18-.09-.34-.16-.53-.25-.3-.16-.57-.34-.83-.53-.18-.11-.37-.25-.5-.44-.46-.44-.71-.96-.71-1.56,0-.87.57-1.63,1.51-2.22l-.18.85c-.48.41-.76.89-.76,1.38,0,.3.09.57.28.85.14.18.28.37.48.53.23.21.53.39.85.57.16.09.32.18.5.28.25.11.55.23.85.34.18.05.37.11.57.16,1.79.57,4.15.92,6.74.92,1.21,0,2.36-.07,3.42-.21.46-.05.89-.11,1.33-.21.96-.16,1.83-.41,2.59-.69.92-.32,1.65-.71,2.15-1.15.21-.16.37-.34.46-.53v-.02h.02c.21-.28.3-.55.3-.85,0-.5-.3-1.01-.83-1.44l-.18-.83c.99.62,1.58,1.38,1.58,2.27Z"/><path class="p" d="m102.63,61.9l-.16.73c-.28.16-.5.32-.71.5l.18-.85c.21-.14.44-.28.69-.39Z"/><path class="p" d="m120.71,63.06c-.18-.16-.41-.3-.66-.46l-.16-.73c.23.11.46.25.64.37l.18.83Z"/><path class="r" d="m47.98,28.61c-.14,0-.28-.03-.42-.1l-8.09-3.88c-.49-.23-.69-.81-.46-1.3s.81-.69,1.3-.46l8.09,3.88c.49.23.69.81.46,1.3-.17.35-.52.55-.88.55Z"/><path class="r" d="m33.17,21.5c-.14,0-.28-.03-.42-.1l-10.82-5.19c-.49-.23-.69-.81-.46-1.3.23-.49.81-.69,1.3-.46l10.82,5.19c.49.23.69.81.46,1.3-.17.35-.52.55-.88.55Z"/><path class="r" d="m76.27,19.09c-.38.02-.76-.18-.94-.55l-4.85-10.13c-.23-.49-.03-1.07.46-1.3.48-.23,1.07-.03,1.3.46l4.85,10.13c.23.49.03,1.07-.46,1.3-.12.05-.24.09-.36.09Z"/><path class="r" d="m69.1,4.13c-.38.02-.76-.18-.94-.55l-1.05-2.19c-.23-.49-.03-1.07.46-1.3.49-.23,1.07-.03,1.3.46l1.05,2.19c.23.49.03,1.07-.46,1.3-.12.05-.24.09-.36.09Z"/><path class="r" d="m191.72,19.62c-.25.01-.51-.07-.71-.25-.4-.36-.42-.98-.06-1.38l3.11-3.4c.36-.4.98-.42,1.38-.06.4.36.42.98.06,1.38l-3.11,3.4c-.18.2-.42.3-.66.31Z"/><path class="r" d="m183.59,28.48c-.25.01-.51-.07-.71-.25-.4-.36-.42-.98-.06-1.38l4.06-4.43c.37-.4.98-.42,1.38-.06.4.36.42.98.06,1.38l-4.06,4.43c-.18.2-.42.3-.66.31Z"/><path class="r" d="m76.71,95.62c-.14,0-.28-.03-.41-.09-.49-.23-.7-.81-.47-1.29l1.78-3.82c.23-.49.8-.7,1.29-.47.49.23.7.81.47,1.29l-1.78,3.82c-.16.35-.52.56-.88.56Z"/><path class="r" d="m80.48,87.53c-.14,0-.28-.03-.41-.09-.49-.23-.7-.81-.47-1.29l2.41-5.19c.23-.49.81-.7,1.29-.47.49.23.7.81.47,1.29l-2.41,5.19c-.16.35-.52.56-.88.56Z"/><path class="r" d="m137.89,21.94c-.09-.02-.18-.05-.27-.1-.47-.26-.65-.85-.39-1.32l1.6-2.94c.26-.47.85-.65,1.32-.39.47.26.65.85.39,1.32l-1.6,2.94c-.21.39-.64.57-1.05.49Z"/><path class="r" d="m141.57,15.17c-.09-.02-.18-.05-.27-.1-.47-.26-.65-.85-.39-1.32l6.21-11.39c.26-.47.85-.65,1.32-.39.47.26.65.85.39,1.32l-6.21,11.39c-.21.39-.64.57-1.05.49Z"/><path class="r" d="m173.99,96.06c-.21,0-.42-.07-.6-.21l-2.13-1.67c-.42-.33-.5-.94-.17-1.37.33-.43.94-.5,1.37-.17l2.13,1.67c.42.33.5.94.17,1.37-.19.25-.48.37-.77.37Z"/><path class="r" d="m168.3,91.61c-.21,0-.42-.07-.6-.21l-8.35-6.53c-.42-.33-.5-.94-.17-1.37.33-.43.94-.51,1.37-.17l8.35,6.53c.42.33.5.94.17,1.37-.19.25-.48.37-.77.37Z"/><path class="r" d="m12.3,61.41c-.51,0-.94-.4-.97-.92-.03-.54.38-1,.92-1.03l11.55-.65c.52-.06,1,.38,1.03.92s-.38,1-.92,1.03l-11.55.65s-.04,0-.06,0Z"/><path class="r" d="m.97,62.05c-.51,0-.94-.4-.97-.92-.03-.54.38-1,.92-1.03l4.97-.28c.53-.06,1,.38,1.03.92.03.54-.38,1-.92,1.03l-4.97.28s-.04,0-.06,0Z"/><path class="r" d="m231.4,95.91c-.13.01-.26,0-.38-.04l-5.37-1.76c-.51-.17-.79-.72-.62-1.23.17-.51.72-.79,1.23-.62l5.37,1.76c.51.17.79.72.62,1.23-.13.38-.47.64-.85.67Z"/><path class="r" d="m220.66,92.39c-.13.01-.26,0-.38-.04l-11.63-3.81c-.51-.17-.79-.72-.62-1.23s.72-.79,1.23-.62l11.63,3.81c.51.17.79.72.62,1.23-.13.38-.47.64-.85.67Z"/><path class="r" d="m203.09,86.64c-.13.01-.26,0-.38-.04l-4.25-1.39c-.51-.17-.79-.72-.62-1.23.17-.51.72-.79,1.23-.62l4.25,1.39c.51.17.79.72.62,1.23-.13.38-.47.64-.85.67Z"/><path class="r" d="m137.9,100c-.35-.02-.67-.23-.82-.57l-4.76-10.39c-.22-.49,0-1.07.48-1.29.49-.22,1.07,0,1.29.48l4.76,10.39c.22.49,0,1.07-.48,1.29-.15.07-.31.1-.47.09Z"/><path class="r" d="m131.46,85.93c-.35-.02-.67-.23-.82-.57l-1.32-2.89c-.22-.49,0-1.07.48-1.29.49-.22,1.07,0,1.29.48l1.32,2.89c.22.49,0,1.07-.48,1.29-.15.07-.31.1-.47.09Z"/><path class="r" d="m251.71,27.51c-.44.04-.86-.23-1.01-.67-.17-.51.11-1.06.62-1.23l3.4-1.12c.5-.18,1.06.11,1.23.62.17.51-.11,1.06-.62,1.23l-3.4,1.12c-.07.03-.15.04-.22.05Z"/><path class="r" d="m237.63,32.17c-.44.04-.86-.23-1.01-.67-.17-.51.11-1.06.62-1.23l9.89-3.27c.5-.18,1.06.11,1.23.62.17.51-.11,1.06-.62,1.23l-9.89,3.27c-.07.03-.15.04-.22.05Z"/><path class="r" d="m222.91,37.04c-.44.04-.86-.23-1.01-.67-.17-.51.11-1.06.62-1.23l8.33-2.76c.51-.18,1.06.11,1.23.62.17.51-.11,1.06-.62,1.23l-8.33,2.76c-.07.03-.15.04-.22.05Z"/><path class="r" d="m30.56,90.06c-.37,0-.73-.22-.89-.58-.22-.49,0-1.07.49-1.29l13.57-6.07c.5-.22,1.07,0,1.29.49.22.49,0,1.07-.49,1.29l-13.57,6.07c-.13.06-.26.09-.4.09Z"/><path class="r" d="m48.36,82.1c-.37,0-.73-.22-.89-.58-.22-.49,0-1.07.49-1.29l4.23-1.89c.49-.23,1.07,0,1.29.49.22.49,0,1.07-.49,1.29l-4.23,1.89c-.13.06-.26.09-.4.09Z"/></g></svg>