<?xml version="1.0" encoding="UTF-8"?><svg id="b" xmlns="http://www.w3.org/2000/svg" viewBox="0 0 256 256"><defs><style>.d{fill:#fdacb8;}.d,.e{stroke-width:0px;}.e{fill:#ffbbd0;}</style></defs><g id="c"><rect class="d" y="0" width="256" height="256"/><path class="e" d="m65.39,31.94c-1.02-1.02-2.61-1.21-3.84-.46h0s0,0,0,0h0s-3.55,2.14-3.55,2.14h0s-5.44,3.29-5.44,3.29c-.08.05-.14.1-.2.16l-1.22-1.22c-.42-.42-1.1-.42-1.52,0s-.42,1.1,0,1.52l.76.76c0,1.94.77,3.8,2.14,5.17l10.86,10.86c1.37,1.37,3.24,2.14,5.17,2.14l.76.76c.42.42,1.1.42,1.52,0s.42-1.1,0-1.52l-1.23-1.23c.06-.06.11-.13.16-.2l3.31-5.42h0s2.16-3.52,2.16-3.52c.76-1.24.57-2.83-.46-3.86l-9.37-9.37Zm2.66,20.84l-14.17-14.17,5.67-3.42,11.95,11.95-3.45,5.64h0Z"/><path class="e" d="m65.39,117.27c-1.02-1.02-2.61-1.21-3.84-.46h0s0,0,0,0h0s-3.55,2.14-3.55,2.14h0s-5.44,3.29-5.44,3.29c-.08.05-.14.1-.2.16l-1.22-1.22c-.42-.42-1.1-.42-1.52,0s-.42,1.1,0,1.52l.76.76c0,1.94.77,3.8,2.14,5.17l10.86,10.86c1.37,1.37,3.24,2.14,5.17,2.14l.76.76c.42.42,1.1.42,1.52,0s.42-1.1,0-1.52l-1.23-1.23c.06-.06.11-.13.16-.2l3.31-5.42h0s2.16-3.52,2.16-3.52c.76-1.24.57-2.83-.46-3.86l-9.37-9.37Zm2.66,20.84l-14.17-14.17,5.67-3.42,11.95,11.95-3.45,5.64h0Z"/><path class="e" d="m65.39,202.61c-1.02-1.02-2.61-1.21-3.84-.46h0s0,0,0,0h0s-3.55,2.14-3.55,2.14h0s-5.44,3.29-5.44,3.29c-.08.05-.14.1-.2.16l-1.22-1.22c-.42-.42-1.1-.42-1.52,0s-.42,1.1,0,1.52l.76.76c0,1.94.77,3.8,2.14,5.17l10.86,10.86c1.37,1.37,3.24,2.14,5.17,2.14l.76.76c.42.42,1.1.42,1.52,0s.42-1.1,0-1.52l-1.23-1.23c.06-.06.11-.13.16-.2l3.31-5.42h0s2.16-3.52,2.16-3.52c.76-1.24.57-2.83-.46-3.86l-9.37-9.37Zm2.66,20.84l-14.17-14.17,5.67-3.42,11.95,11.95-3.45,5.64h0Z"/><path class="e" d="m122.02,82.45c.96-.96,1.15-2.37,1.18-3.14,1.56-1.17,2.37-2.93,1.92-4.58-.2-.72-.5-1.28-.9-1.69-.45-.45-1.02-.71-1.74-.78-.17-.27-.44-.63-.79-.99-.47-.47-1.1-.93-1.88-1.1-1.2-.28-1.81.17-1.97.86-.1.42-.02,1,.33,1.35.23.23.57.36,1.05.29.1-.01.19-.03.29-.04,0,.02,0,.04,0,.06-2.79.88-5.54,2.8-4.93,5,.17.61.49,1.15.93,1.59,1.06,1.06,2.8,1.58,4.64,1.3.02.03.04.05.07.08-1.12.5-.81,1.62-.31,2.12s1.25.56,2.12-.32Z"/><path class="e" d="m142.4,91.44c.16-.23.29-.48.38-.75.31-.96.15-2.07-.46-3.04l-.3-.48.35-.44c.6-.76.77-1.79.49-2.83-.19-.69-.57-1.33-1.09-1.86-.29-.29-.62-.54-.97-.73l-.43-.24.02-.49c.04-1.07-.4-2.15-1.23-2.97-.75-.75-1.7-1.18-2.67-1.23l-.43-.02-.22-.37c-.19-.31-.41-.6-.67-.86-.48-.48-1.05-.83-1.67-1.04-1.04-.34-2.09-.22-2.89.33l-.46.32-.46-.31c-.95-.65-2.06-.88-3.04-.62-.13.03-.26.08-.38.13.05.14.1.29.14.44.3,1.09.2,2.24-.27,3.34-.36.83-.93,1.6-1.65,2.25-.12.99-.47,2.37-1.52,3.42-.64.64-1.32.99-2.02,1.06-.65.06-1.28-.14-1.79-.57.06.58.26,1.15.59,1.67l-4.4,4.4c-.45.45-.45,1.17,0,1.61s1.17.45,1.61,0l3.39-3.39c-.04.68.13,1.39.5,2.05.2.35.44.68.73.96.53.53,1.18.91,1.87,1.1l.47.13.1.47c.17.76.57,1.49,1.14,2.06.24.24.5.45.79.63.97.6,2.08.76,3.04.45l.49-.16.04.05-4.11,4.11c-.45.45-.45,1.17,0,1.61s1.17.45,1.61,0l4.31-4.31c.46.19.94.3,1.42.31,1.02.01,1.92-.43,2.46-1.21l.34-.49.57.19c1.04.34,2.09.22,2.89-.33.78-.54,1.22-1.44,1.2-2.47v-.63s.6-.16.6-.16c.03,0,.05-.01.07-.02-.09,1.43-.76,3.54.87,3.35,1.91-.23,1.24-2.82.64-4.41Z"/><path class="e" d="m122.02,167.78c.96-.96,1.15-2.37,1.18-3.14,1.56-1.17,2.37-2.93,1.92-4.58-.2-.72-.5-1.28-.9-1.69-.45-.45-1.02-.71-1.74-.78-.17-.27-.44-.63-.79-.99-.47-.47-1.1-.93-1.88-1.1-1.2-.28-1.81.17-1.97.86-.1.42-.02,1,.33,1.35.23.23.57.36,1.05.29.1-.01.19-.03.29-.04,0,.02,0,.04,0,.06-2.79.88-5.54,2.8-4.93,5,.17.61.49,1.15.93,1.59,1.06,1.06,2.8,1.58,4.64,1.3.02.03.04.05.07.08-1.12.5-.81,1.62-.31,2.12s1.25.56,2.12-.32Z"/><path class="e" d="m142.4,176.77c.16-.23.29-.48.38-.75.31-.96.15-2.07-.46-3.04l-.3-.48.35-.44c.6-.76.77-1.79.49-2.83-.19-.69-.57-1.33-1.09-1.86-.29-.29-.62-.54-.97-.73l-.43-.24.02-.49c.04-1.07-.4-2.15-1.23-2.97-.75-.75-1.7-1.18-2.67-1.23l-.43-.02-.22-.37c-.19-.31-.41-.6-.67-.86-.48-.48-1.05-.83-1.67-1.04-1.04-.34-2.09-.22-2.89.33l-.46.32-.46-.31c-.95-.65-2.06-.88-3.04-.62-.13.03-.26.08-.38.13.05.14.1.29.14.44.3,1.09.2,2.24-.27,3.34-.36.83-.93,1.6-1.65,2.25-.12.99-.47,2.37-1.52,3.42-.64.64-1.32.99-2.02,1.06-.65.06-1.28-.14-1.79-.57.06.58.26,1.15.59,1.67l-4.4,4.4c-.45.45-.45,1.17,0,1.61s1.17.45,1.61,0l3.39-3.39c-.04.68.13,1.39.5,2.05.2.35.44.68.73.96.53.53,1.18.91,1.87,1.1l.47.13.1.47c.17.76.57,1.49,1.14,2.06.24.24.5.45.79.63.97.6,2.08.76,3.04.45l.49-.16.04.05-4.11,4.11c-.45.45-.45,1.17,0,1.61s1.17.45,1.61,0l4.31-4.31c.46.19.94.3,1.42.31,1.02.01,1.92-.43,2.46-1.21l.34-.49.57.19c1.04.34,2.09.22,2.89-.33.78-.54,1.22-1.44,1.2-2.47v-.63s.6-.16.6-.16c.03,0,.05-.01.07-.02-.09,1.43-.76,3.54.87,3.35,1.91-.23,1.24-2.82.64-4.41Z"/><path class="e" d="m1.47,181.19l-.49.16c-.31.1-.64.14-.98.14v1.26l1.52-1.52-.04-.05Z"/><path class="e" d="m1.47,95.86l-.49.16c-.31.1-.64.14-.98.14v1.26l1.52-1.52-.04-.05Z"/><path class="e" d="m1.47,10.52l-.49.16c-.31.1-.64.14-.98.14v1.26l1.52-1.52-.04-.05Z"/><path class="e" d="m4.75,12.29c1.02.01,1.92-.43,2.46-1.21l.34-.49.57.19c1.04.34,2.09.22,2.89-.33.78-.54,1.22-1.44,1.2-2.47v-.63s.6-.16.6-.16c.03,0,.05-.01.07-.02-.09,1.43-.76,3.54.87,3.35,1.91-.23,1.24-2.82.64-4.41.16-.23.29-.48.38-.75.31-.96.15-2.07-.46-3.04l-.3-.48.35-.44c.32-.4.51-.88.58-1.4H0v10.82c.33,0,.67-.04.98-.14l.49-.16.04.05L0,12.09v3.23l3.33-3.33c.46.19.94.3,1.42.31Z"/><path class="e" d="m4.75,97.62c1.02.01,1.92-.43,2.46-1.21l.34-.49.57.19c1.04.34,2.09.22,2.89-.33.78-.54,1.22-1.44,1.2-2.47v-.63s.6-.16.6-.16c.03,0,.05-.01.07-.02-.09,1.43-.76,3.54.87,3.35,1.91-.23,1.24-2.82.64-4.41.16-.23.29-.48.38-.75.31-.96.15-2.07-.46-3.04l-.3-.48.35-.44c.6-.76.77-1.79.49-2.83-.19-.69-.57-1.33-1.09-1.86-.29-.29-.62-.54-.97-.73l-.43-.24.02-.49c.04-1.07-.4-2.15-1.23-2.97-.75-.75-1.7-1.18-2.67-1.23l-.43-.02-.22-.37c-.19-.31-.41-.6-.67-.86-.48-.48-1.05-.83-1.67-1.04-1.04-.34-2.09-.22-2.89.33l-.46.32-.46-.31c-.53-.36-1.1-.58-1.68-.67v22.41c.33,0,.67-.04.98-.14l.49-.16.04.05L0,97.42v3.23l3.33-3.33c.46.19.94.3,1.42.31Z"/><path class="e" d="m4.75,182.96c1.02.01,1.92-.43,2.46-1.21l.34-.49.57.19c1.04.34,2.09.22,2.89-.33.78-.54,1.22-1.44,1.2-2.47v-.63s.6-.16.6-.16c.03,0,.05-.01.07-.02-.09,1.43-.76,3.54.87,3.35,1.91-.23,1.24-2.82.64-4.41.16-.23.29-.48.38-.75.31-.96.15-2.07-.46-3.04l-.3-.48.35-.44c.6-.76.77-1.79.49-2.83-.19-.69-.57-1.33-1.09-1.86-.29-.29-.62-.54-.97-.73l-.43-.24.02-.49c.04-1.07-.4-2.15-1.23-2.97-.75-.75-1.7-1.18-2.67-1.23l-.43-.02-.22-.37c-.19-.31-.41-.6-.67-.86-.48-.48-1.05-.83-1.67-1.04-1.04-.34-2.09-.22-2.89.33l-.46.32-.46-.31c-.53-.36-1.1-.58-1.68-.67v22.41c.33,0,.67-.04.98-.14l.49-.16.04.05L0,182.75v3.23l3.33-3.33c.46.19.94.3,1.42.31Z"/><path class="e" d="m14.86,254.56c-.19-.69-.57-1.33-1.09-1.86-.29-.29-.62-.54-.97-.73l-.43-.24.02-.49c.04-1.07-.4-2.15-1.23-2.97-.75-.75-1.7-1.18-2.67-1.23l-.43-.02-.22-.37c-.19-.31-.41-.6-.67-.86-.48-.48-1.05-.83-1.67-1.04-1.04-.34-2.09-.22-2.89.33l-.46.32-.46-.31c-.53-.36-1.1-.58-1.68-.67v11.58h14.95c.07-.46.04-.94-.09-1.44Z"/><path class="e" d="m115.34,4.61c-.45.45-.45,1.17,0,1.61s1.17.45,1.61,0l3.39-3.39c-.04.68.13,1.39.5,2.05.2.35.44.68.73.96.53.53,1.18.91,1.87,1.1l.47.13.1.47c.17.76.57,1.49,1.14,2.06.24.24.5.45.79.63.97.6,2.08.76,3.04.45l.49-.16.04.05-4.11,4.11c-.45.45-.45,1.17,0,1.61s1.17.45,1.61,0l4.31-4.31c.46.19.94.3,1.42.31,1.02.01,1.92-.43,2.46-1.21l.34-.49.57.19c1.04.34,2.09.22,2.89-.33.78-.54,1.22-1.44,1.2-2.47v-.63s.6-.16.6-.16c.03,0,.05-.01.07-.02-.09,1.43-.76,3.54.87,3.35,1.91-.23,1.24-2.82.64-4.41.16-.23.29-.48.38-.75.31-.96.15-2.07-.46-3.04l-.3-.48.35-.44c.32-.4.51-.88.58-1.4h-23.32c.04.07.06.14.1.21l-4.4,4.4Z"/><path class="e" d="m124.22,243.7c-.45-.45-1.02-.71-1.74-.78-.18-.27-.44-.63-.79-.99-.47-.47-1.1-.93-1.88-1.1-1.2-.28-1.81.17-1.97.86-.1.42-.02,1,.33,1.35.23.23.57.36,1.05.29.1-.01.19-.03.29-.04,0,.02,0,.04,0,.06-2.79.88-5.54,2.8-4.93,5,.17.61.49,1.15.93,1.59,1.06,1.06,2.8,1.58,4.64,1.3.02.03.04.05.07.08-1.12.5-.81,1.62-.31,2.12.5.5,1.25.56,2.12-.32.96-.96,1.15-2.37,1.18-3.14,1.56-1.17,2.37-2.93,1.92-4.58-.2-.72-.5-1.28-.9-1.69Z"/><path class="e" d="m142.86,254.56c-.19-.69-.57-1.33-1.09-1.86-.29-.29-.62-.54-.97-.73l-.43-.24.02-.49c.04-1.07-.4-2.15-1.23-2.97-.75-.75-1.7-1.18-2.67-1.23l-.43-.02-.22-.37c-.19-.31-.41-.6-.67-.86-.48-.48-1.05-.83-1.67-1.04-1.04-.34-2.09-.22-2.89.33l-.46.32-.46-.31c-.95-.65-2.06-.88-3.04-.62-.13.03-.26.08-.38.13.05.14.1.29.14.45.3,1.09.2,2.24-.27,3.34-.36.83-.93,1.6-1.65,2.25-.12.99-.47,2.37-1.52,3.42-.64.64-1.32.99-2.02,1.06-.65.06-1.28-.14-1.79-.57.05.5.23,1,.48,1.46h23.32c.07-.46.04-.94-.09-1.44Z"/><path class="e" d="m253.41,14.68c-.45.45-.45,1.17,0,1.61s1.17.45,1.61,0l.98-.98v-3.23l-2.59,2.59Z"/><path class="e" d="m243.34,4.61c-.45.45-.45,1.17,0,1.61.45.45,1.17.45,1.61,0l3.39-3.39c-.04.68.13,1.39.5,2.05.2.35.44.68.73.96.53.53,1.18.91,1.87,1.1l.47.13.1.47c.17.76.57,1.49,1.14,2.06.24.24.5.45.79.63.65.4,1.37.59,2.06.59V0h-8.37c.04.07.06.14.1.21l-4.4,4.4Z"/><path class="e" d="m243.5,79.27c1.06,1.06,2.8,1.58,4.64,1.3.02.03.04.05.07.08-1.12.5-.81,1.62-.31,2.12s1.25.56,2.12-.32c.96-.96,1.15-2.37,1.18-3.14,1.56-1.17,2.37-2.93,1.92-4.58-.2-.72-.5-1.28-.9-1.69-.45-.45-1.02-.71-1.74-.78-.18-.27-.44-.63-.79-.99-.47-.47-1.1-.93-1.88-1.1-1.2-.28-1.81.17-1.97.86-.1.42-.02,1,.33,1.35.23.23.57.36,1.05.29.1-.01.19-.03.29-.04,0,.02,0,.04,0,.06-2.79.88-5.54,2.8-4.93,5,.17.61.49,1.15.93,1.59Z"/><path class="e" d="m254.64,73.8c-.13.03-.26.08-.38.13.05.14.1.29.14.44.3,1.09.2,2.24-.27,3.34-.36.83-.93,1.6-1.65,2.25-.12.99-.47,2.37-1.52,3.42-.64.64-1.32.99-2.02,1.06-.65.06-1.28-.14-1.79-.57.06.58.26,1.15.59,1.67l-4.4,4.4c-.45.45-.45,1.17,0,1.61s1.17.45,1.61,0l3.39-3.39c-.04.68.13,1.39.5,2.05.2.35.44.68.73.96.53.53,1.18.91,1.87,1.1l.47.13.1.47c.17.76.57,1.49,1.14,2.06.24.24.5.45.79.63.65.4,1.37.59,2.06.59v-22.41c-.46-.07-.92-.07-1.36.05Z"/><path class="e" d="m253.41,100.01c-.45.45-.45,1.17,0,1.61s1.17.45,1.61,0l.98-.98v-3.23l-2.59,2.59Z"/><path class="e" d="m252.22,158.36c-.45-.45-1.02-.71-1.74-.78-.18-.27-.44-.63-.79-.99-.47-.47-1.1-.93-1.88-1.1-1.2-.28-1.81.17-1.97.86-.1.42-.02,1,.33,1.35.23.23.57.36,1.05.29.1-.01.19-.03.29-.04,0,.02,0,.04,0,.06-2.79.88-5.54,2.8-4.93,5,.17.61.49,1.15.93,1.59,1.06,1.06,2.8,1.58,4.64,1.3.02.03.04.05.07.08-1.12.5-.81,1.62-.31,2.12.5.5,1.25.56,2.12-.32.96-.96,1.15-2.37,1.18-3.14,1.56-1.17,2.37-2.93,1.92-4.58-.2-.72-.5-1.28-.9-1.69Z"/><path class="e" d="m253.41,185.35c-.45.45-.45,1.17,0,1.61.45.45,1.17.45,1.61,0l.98-.98v-3.23l-2.59,2.59Z"/><path class="e" d="m254.64,159.13c-.13.03-.26.08-.38.13.05.14.1.29.14.44.3,1.09.2,2.24-.27,3.34-.36.83-.93,1.6-1.65,2.25-.12.99-.47,2.37-1.52,3.42-.64.64-1.32.99-2.02,1.06-.65.06-1.28-.14-1.79-.57.06.58.26,1.15.59,1.67l-4.4,4.4c-.45.45-.45,1.17,0,1.61.45.45,1.17.45,1.61,0l3.39-3.39c-.04.68.13,1.39.5,2.05.2.35.44.68.73.96.53.53,1.18.91,1.87,1.1l.47.13.1.47c.17.76.57,1.49,1.14,2.06.24.24.5.45.79.63.65.4,1.37.59,2.06.59v-22.41c-.46-.07-.92-.07-1.36.05Z"/><path class="e" d="m242.57,248.34c.17.61.49,1.15.93,1.59,1.06,1.06,2.8,1.58,4.64,1.3.02.03.04.05.07.08-1.12.5-.81,1.62-.31,2.12.5.5,1.25.56,2.12-.32.96-.96,1.15-2.37,1.18-3.14,1.56-1.17,2.37-2.93,1.92-4.58-.2-.72-.5-1.28-.9-1.69-.45-.45-1.02-.71-1.74-.78-.18-.27-.44-.63-.79-.99-.47-.47-1.1-.93-1.88-1.1-1.2-.28-1.81.17-1.97.86-.1.42-.02,1,.33,1.35.23.23.57.36,1.05.29.1-.01.19-.03.29-.04,0,.02,0,.04,0,.06-2.79.88-5.54,2.8-4.93,5Z"/><path class="e" d="m254.64,244.47c-.13.03-.26.08-.38.13.05.14.1.29.14.45.3,1.09.2,2.24-.27,3.34-.36.83-.93,1.6-1.65,2.25-.12.99-.47,2.37-1.52,3.42-.64.64-1.32.99-2.02,1.06-.65.06-1.28-.14-1.79-.57.05.5.23,1,.48,1.46h8.37v-11.58c-.46-.07-.92-.07-1.36.05Z"/><path class="e" d="m193.39,31.94c-1.02-1.02-2.61-1.21-3.84-.46h0s0,0,0,0h0s-3.55,2.14-3.55,2.14h0s-5.44,3.29-5.44,3.29c-.08.05-.14.1-.2.16l-1.22-1.22c-.42-.42-1.1-.42-1.52,0s-.42,1.1,0,1.52l.76.76c0,1.94.77,3.8,2.14,5.17l10.86,10.86c1.37,1.37,3.24,2.14,5.17,2.14l.76.76c.42.42,1.1.42,1.52,0s.42-1.1,0-1.52l-1.23-1.23c.06-.06.11-.13.16-.2l3.31-5.42h0s2.16-3.52,2.16-3.52c.76-1.24.57-2.83-.46-3.86l-9.37-9.37Zm2.66,20.84l-14.17-14.17,5.67-3.42,11.95,11.95-3.45,5.64h0Z"/><path class="e" d="m193.39,117.27c-1.02-1.02-2.61-1.21-3.84-.46h0s0,0,0,0h0s-3.55,2.14-3.55,2.14h0s-5.44,3.29-5.44,3.29c-.08.05-.14.1-.2.16l-1.22-1.22c-.42-.42-1.1-.42-1.52,0s-.42,1.1,0,1.52l.76.76c0,1.94.77,3.8,2.14,5.17l10.86,10.86c1.37,1.37,3.24,2.14,5.17,2.14l.76.76c.42.42,1.1.42,1.52,0s.42-1.1,0-1.52l-1.23-1.23c.06-.06.11-.13.16-.2l3.31-5.42h0s2.16-3.52,2.16-3.52c.76-1.24.57-2.83-.46-3.86l-9.37-9.37Zm2.66,20.84l-14.17-14.17,5.67-3.42,11.95,11.95-3.45,5.64h0Z"/><path class="e" d="m193.39,202.61c-1.02-1.02-2.61-1.21-3.84-.46h0s0,0,0,0h0s-3.55,2.14-3.55,2.14h0s-5.44,3.29-5.44,3.29c-.08.05-.14.1-.2.16l-1.22-1.22c-.42-.42-1.1-.42-1.52,0s-.42,1.1,0,1.52l.76.76c0,1.94.77,3.8,2.14,5.17l10.86,10.86c1.37,1.37,3.24,2.14,5.17,2.14l.76.76c.42.42,1.1.42,1.52,0s.42-1.1,0-1.52l-1.23-1.23c.06-.06.11-.13.16-.2l3.31-5.42h0s2.16-3.52,2.16-3.52c.76-1.24.57-2.83-.46-3.86l-9.37-9.37Zm2.66,20.84l-14.17-14.17,5.67-3.42,11.95,11.95-3.45,5.64h0Z"/></g></svg>