<?xml version="1.0" encoding="UTF-8"?><svg id="b" xmlns="http://www.w3.org/2000/svg" xmlns:xlink="http://www.w3.org/1999/xlink" viewBox="0 0 256 100"><defs><style>.h{filter:url(#d);}.i{filter:url(#f);}.j{fill:#4f4f4f;}.j,.k,.l,.m,.n,.o,.p,.q,.r,.s,.t{stroke-width:0px;}.k{fill:#823e00;}.l{fill:#6d401b;}.m{fill:#724e2a;}.n{fill:#c6c6c6;}.o{fill:#dbd886;}.p{fill:#aaa;}.q{fill:#934d00;}.r{fill:#fff;}.s{fill:#ffff85;}.t{fill:#eaeaea;}</style><filter id="d" filterUnits="userSpaceOnUse"><feOffset dx="-1" dy="1.5"/><feGaussianBlur result="e" stdDeviation="0"/><feFlood flood-color="#dd7a92" flood-opacity=".73"/><feComposite in2="e" operator="in"/><feComposite in="SourceGraphic"/></filter><filter id="f" filterUnits="userSpaceOnUse"><feOffset dx="1" dy="1.5"/><feGaussianBlur result="g" stdDeviation="0"/><feFlood flood-color="#9b9bc9" flood-opacity=".73"/><feComposite in2="g" operator="in"/><feComposite in="SourceGraphic"/></filter></defs><g id="c"><g class="h"><path class="r" d="m69,58.99c-1.31.11-2.2.02-2.66-.18-.14-3.96-.34-6.68-.69-8.13-.58-2.37-1.96-4.09-4.08-5.21-1.97-.96-4.21-1.29-6.7-.99.21,5.08-.6,9.58-2.29,13.57,1.09,1.73,1.95,3.17,2.62,4.23-.6.71-1.38,1.31-2.34,1.75-.93-1.31-1.7-2.35-2.2-3.16-1.86,2.25-3.06,3.66-3.64,4.21-1.56,1.4-3.19,2.26-4.94,2.68s-3.15.1-4.44-.97c-1.19-.89-1.98-2.24-2.42-4.08-.59-2.42-.19-5.23,1.23-8.45,1.28-2.77,2.95-5.17,5.04-7.11l-4.11-6.79c.54-.75,1.36-1.36,2.5-1.74l4.36,6.37c1.75-1.25,4.06-2.27,6.85-3.04-.27-1.52-.46-2.76-.65-3.74.73-.18,1.2-.34,1.44-.4.29-.07.74-.13,1.44-.2.25.61.47,1.32.67,2.14.13.53.21,1.08.33,1.56,3.4-.36,6.32.06,8.76,1.26,2.79,1.37,4.58,3.66,5.35,6.85.7,2.9.86,6.09.57,9.55Zm-25.68-9.1c-1.59,1.46-2.93,3.33-3.96,5.63-1.12,2.58-1.41,4.75-.97,6.59.19.78.53,1.36,1.06,1.84.53.49,1.08.66,1.71.51,2.47-.6,4.94-2.68,7.45-6.27-2.03-3.1-3.79-5.9-5.29-8.3Zm2.58-2.06l4.54,7.3c.48-1.19.83-2.92,1.06-5.13.18-1.99.24-3.65.16-5.06-2.47.81-4.4,1.73-5.76,2.88Z"/><path class="r" d="m110.86,48.83c-1.31.11-2.2.02-2.66-.18-.14-3.96-.34-6.68-.69-8.13-.58-2.37-1.96-4.09-4.08-5.21-1.97-.96-4.21-1.28-6.7-.99.21,5.08-.6,9.58-2.29,13.57,1.09,1.73,1.95,3.17,2.61,4.23-.6.71-1.37,1.31-2.34,1.75-.93-1.31-1.7-2.35-2.2-3.16-1.86,2.25-3.06,3.66-3.64,4.21-1.56,1.4-3.19,2.26-4.94,2.68s-3.15.1-4.44-.97c-1.19-.89-1.98-2.24-2.42-4.08-.59-2.42-.19-5.23,1.23-8.45,1.28-2.77,2.95-5.17,5.04-7.11l-4.11-6.79c.54-.75,1.36-1.36,2.5-1.74l4.36,6.37c1.75-1.25,4.06-2.27,6.85-3.05-.27-1.52-.46-2.76-.65-3.74.73-.18,1.2-.34,1.44-.4.29-.07.74-.13,1.44-.2.25.61.47,1.32.67,2.14.13.53.21,1.08.33,1.56,3.4-.36,6.32.06,8.76,1.26,2.79,1.37,4.58,3.66,5.35,6.85.7,2.9.86,6.09.57,9.55Zm-25.68-9.1c-1.59,1.46-2.93,3.33-3.96,5.63-1.12,2.58-1.41,4.75-.97,6.59.19.78.53,1.36,1.06,1.84.53.49,1.08.66,1.71.51,2.47-.6,4.94-2.68,7.45-6.27-2.03-3.1-3.79-5.9-5.29-8.3Zm2.58-2.06l4.54,7.3c.48-1.19.83-2.92,1.06-5.13.18-1.99.24-3.65.16-5.06-2.47.81-4.4,1.73-5.76,2.88Z"/></g><g class="i"><path class="r" d="m125.03,59.11c-2.44,2.03-3.93,3.21-4.48,3.65-.34-.09-.71-.38-1.1-.93-.45-.45-.71-.83-.72-1.14,1.09-1.63,3.83-4.13,8.22-7.43.29.13.6.42,1,.86.44.55.74.94.91,1.26-.25.42-1.5,1.69-3.83,3.72Zm27.46-11.76c-1.3-.05-2.98-.24-5.16-.49-2.47-.28-4.65-.53-6.42-.83-.22,12.51-.38,19.61-.53,21.34-.03.3-1.19.32-3.46.06-1.58-.18-2.86-.43-3.88-.69-.08-.21-.03-.61.04-1.25.06-.54.16-.98.34-1.26l3.62.36.41-18.95c-6.96-.94-11.99-1.72-15.08-2.27-.11-.31-.11-.82-.03-1.51.07-.64.18-1.13.37-1.46,2.18.25,5.1.53,8.86.96l3.42.39c1.63.23,2.47.33,2.57.34l.15-7.95c.67-.17,1.33-.25,1.98-.18.4.05.79.14,1.12.28l.11,8.28c2.18.25,6.17.85,11.93,1.81,0,.8.05,1.36.01,1.66-.05.4-.2.88-.36,1.36Zm-1.61-9.61c-.83.21-1.39.29-1.63.26-.2-.02-.36-.39-.46-1.21-.13-.66-.22-1.18-.18-1.52.89-.35,1.82-.6,2.79-.68.28.18.53,1.06.84,2.7-.12.14-.54.29-1.35.45Zm2.86,23.28c-.56.49-.94.75-1.24.76-1.75-1.4-3.26-3.08-4.44-5.07.13-.29.43-.65.88-1.1.5-.44.88-.7,1.08-.68.75.44,2.22,2.11,4.5,4.97-.03.3-.33.67-.78,1.11Zm3.15-24.55c-.72.17-1.23.26-1.53.23-.2-.02-.35-.44-.46-1.21-.22-.73-.26-1.23-.23-1.53,1.09-.38,1.97-.58,2.67-.6.1.01.26.38.48,1.11.17.72.26,1.23.32,1.54-.12.14-.53.29-1.26.46Z"/><path class="r" d="m175.23,46.54c-4,4.71-6.75,7.75-8.21,9.14-.39-.14-.75-.44-1.2-.94-.56-.36-.87-.7-.99-1.02.91-1.8,5.78-7.61,14.58-17.49.91.4,1.68,1.04,2.39,1.93-.73,1.12-2.9,3.93-6.57,8.37Zm12.55,16.57c-5.41,7-8.43,10.62-9.08,11.05-.38-.15-.85-.45-1.45-.87-.6-.47-.9-.86-.98-1.12l4.92-6.61-7.45-5.46c.25-.87.85-1.71,1.73-2.46,3.98,2.46,6.64,4.17,7.94,5.07l8.65-11.24c-3.82-2.09-7.42-3.95-10.78-5.64.18-1.18.58-2.04,1.24-2.56,2.07.79,4.6,1.88,7.55,3.27,3.81,1.79,6.12,3,6.9,3.69-.8,1.71-3.89,5.97-9.19,12.89Z"/><path class="r" d="m238.68,65.5c-9.32,3.45-18.7,6.59-28.05,9.43-.5-.86-.93-1.91-1.25-3.1,9.44-3.64,18.86-6.67,28.17-9.22.56.82.95,1.76,1.12,2.89Zm-15.49-14.95c-.4.86-.95,1.7-1.75,2.56-2.84-1.03-5.91-2.68-9.27-4.92.37-1.06.88-2.01,1.53-2.88,3.4,1.39,6.56,3.1,9.48,5.24Z"/></g><path class="t" d="m110.99,71.63c-8.04,0-14.54-2.68-14.54-5.99v9.73c0,3.31,6.51,5.99,14.54,5.99s14.54-2.68,14.54-5.99v-9.73c0,3.31-6.51,5.99-14.54,5.99Z"/><path class="n" d="m125.53,65.65v9.72c0,.23-.02.47-.11.7-.02.16-.09.32-.16.45-.11.25-.27.5-.47.74-.11.16-.25.29-.41.43-.29.29-.63.56-1.01.81-.2.14-.41.27-.63.38-.23.11-.45.25-.7.36-1.67.81-3.87,1.44-6.39,1.8v-15.4h9.88Z"/><path class="t" d="m125.49,65.27c0-.11-.02-.23-.07-.32,0-.07-.02-.16-.07-.23-.02-.07-.04-.14-.07-.18-.11-.27-.29-.52-.5-.79-.11-.16-.25-.29-.41-.43-1.01-.99-2.63-1.85-4.66-2.45-.2-.07-.41-.14-.61-.18-.45-.14-.92-.25-1.42-.36h-.02c-.25-.07-.5-.11-.74-.16s-.5-.09-.77-.11c-.16-.05-.32-.07-.47-.07l-.02-.02c-1.46-.2-3.04-.32-4.68-.32-1.49,0-2.88.09-4.23.27h-.02c-.41.04-.79.09-1.17.16h-.02c-.45.09-.86.16-1.28.25-.5.11-.97.23-1.42.36h-.02c-.2.07-.41.11-.61.2-3.51,1.06-5.76,2.79-5.76,4.75,0,.65.27,1.31.77,1.89.09.16.23.29.38.43.16.18.36.36.59.54.18.11.38.25.59.38.23.14.47.29.74.43s.54.27.86.41c.18.09.38.18.59.25.27.11.54.2.81.29.32.11.65.23,1.01.32.11.02.23.07.34.09.11.05.25.07.41.11.05,0,.09.02.14.02.5.14,1.04.25,1.58.34.61.11,1.24.2,1.89.27,1.24.16,2.54.23,3.87.23.59,0,1.19-.02,1.78-.05.56-.02,1.15-.07,1.71-.14.41-.05.79-.09,1.17-.14.36-.05.72-.11,1.06-.16.14-.02.29-.07.43-.09.29-.05.59-.11.86-.18.83-.18,1.62-.41,2.34-.65.25-.09.47-.18.7-.27.09-.02.16-.04.25-.09.11-.05.23-.11.34-.16.47-.18.88-.41,1.26-.63.11-.05.23-.11.32-.18.27-.18.52-.34.72-.52.34-.27.63-.56.88-.86.2-.25.38-.52.5-.79.02-.04.04-.11.07-.18.05-.07.05-.14.07-.23.02-.05.02-.09.04-.14,0-.02.02-.07.02-.11,0-.02.02-.05,0-.07.05-.14.05-.25.05-.38s0-.25-.05-.38Zm-4.7.38h-.02l-.41-1.85-.09-.41c.52.43.81.92.81,1.42,0,.29-.09.56-.29.83Zm-19.2-1.85l-.41,1.85c-.18-.27-.27-.54-.27-.83,0-.47.27-.95.74-1.35l-.07.34Z"/><path class="n" d="m125.49,65.27c0-.11-.02-.23-.07-.32,0-.07-.02-.16-.07-.23-.02-.07-.04-.14-.07-.18-.11-.27-.29-.52-.5-.79-.11-.16-.25-.29-.41-.43-1.01-.99-2.63-1.85-4.66-2.45v-.02c-.2-.05-.41-.11-.61-.16-.45-.14-.92-.25-1.42-.36h-.02c-.25-.07-.5-.11-.74-.16s-.5-.09-.77-.14c-.16-.02-.34-.05-.5-.07l.02.02s.16.14.29.27c.11.09.25.23.41.38.05.07.11.14.18.2.68.79,1.53,2.07,1.76,3.8.05.32.07.65.07.99,0,.61-.07,1.17-.2,1.67-.05.23-.11.45-.18.65-.43,1.19-1.1,2.09-1.64,2.68-.34.38-.63.61-.72.68.36-.05.72-.11,1.06-.16.14-.02.29-.07.43-.09.29-.05.59-.11.86-.18.83-.18,1.62-.41,2.34-.65.23-.07.47-.16.7-.25v-.02c.09-.02.16-.04.25-.09h.02c.11-.05.23-.09.32-.14v-.02c.47-.18.88-.41,1.26-.63.11-.07.23-.11.32-.18.27-.18.52-.34.72-.52.36-.27.65-.56.88-.86.2-.25.38-.52.5-.79.02-.04.04-.11.07-.18.05-.07.05-.14.07-.23.02-.05.04-.09.04-.14,0-.02.02-.07.02-.11,0-.02.02-.05,0-.07.05-.14.05-.25.05-.38s0-.25-.05-.38Zm-5.13-1.46l-.09-.41c.52.43.81.92.81,1.42,0,.29-.09.56-.29.83h-.02l-.41-1.85Z"/><path class="p" d="m119.59,60.23c-.2-.05-.41-.11-.61-.16-.23-.07-.45-.14-.7-.18-.59-.14-1.19-.25-1.82-.36-1.69-.27-3.53-.43-5.47-.43s-3.69.14-5.34.41c-.27.04-.52.09-.79.14-.41.07-.81.16-1.19.27-.25.05-.5.09-.72.18-.2.04-.41.09-.61.16-3.94,1.17-6.46,3.13-6.46,5.4v9.72c0,3.67,6.64,6.55,15.1,6.55s15.11-2.88,15.11-6.55v-9.72c0-2.3-2.54-4.25-6.51-5.43Zm5.38,15.15c0,2.09-3.6,4.3-9.32,5.11-1.42.2-2.99.32-4.66.32-8.35,0-13.98-2.81-13.98-5.43v-7.2c.79.86,2,1.62,3.51,2.23.29.14.59.25.9.36,2.59.9,5.9,1.44,9.57,1.44,1.22,0,2.39-.07,3.51-.16.38-.05.77-.09,1.15-.16,1.82-.25,3.47-.63,4.91-1.13.02,0,.02-.02.02-.02.32-.09.61-.2.88-.34,1.51-.61,2.72-1.37,3.51-2.23v7.2Zm-3.44-6.21c-.16.07-.34.16-.52.23-1.28.54-2.84.97-4.64,1.26-.23.04-.47.09-.72.11-.38.07-.77.11-1.17.14-1.1.11-2.27.18-3.49.18-2.77,0-5.24-.32-7.29-.81-.18-.04-.36-.09-.54-.16-.29-.07-.59-.16-.86-.25-.18-.05-.36-.11-.52-.16-.29-.11-.56-.2-.81-.32-.18-.07-.36-.16-.54-.25-2.16-.99-3.42-2.25-3.42-3.49,0-1.53,1.87-3.08,5.07-4.14.2-.07.41-.14.63-.2.72-.23,1.51-.41,2.36-.56h.02c.47-.09.97-.18,1.49-.25h.02c.38-.05.79-.09,1.22-.11,1.01-.11,2.07-.16,3.17-.16,1.69,0,3.26.11,4.7.32.25.05.47.07.7.11.16.02.32.04.47.07l.02.02c.86.16,1.64.34,2.36.56.2.05.43.11.61.18,3.22,1.06,5.11,2.63,5.11,4.16,0,1.24-1.24,2.5-3.44,3.51Z"/><path class="j" d="m121.08,64.82c0,.29-.09.56-.29.83h-.02l-.41-1.85-.09-.41c.52.43.81.92.81,1.42Z"/><path class="j" d="m101.65,63.47l-.07.34-.41,1.85c-.18-.27-.27-.54-.27-.83,0-.47.27-.95.74-1.35Z"/><path class="r" d="m98.17,76.19c-.15,0-.28-.13-.28-.28v-1.43c0-.16.13-.28.28-.28s.28.13.28.28v1.43c0,.16-.13.28-.28.28Z"/><path class="r" d="m98.17,73.38c-.15,0-.28-.13-.28-.28v-2.59c0-.16.13-.28.28-.28s.28.13.28.28v2.59c0,.16-.13.28-.28.28Z"/><path class="r" d="m99.57,77.39c-.15,0-.28-.13-.28-.28v-3c0-.16.13-.28.28-.28s.28.13.28.28v3c0,.16-.13.28-.28.28Z"/><path class="r" d="m99.57,73.29c-.15,0-.28-.13-.28-.28v-1.6c0-.16.13-.28.28-.28s.28.13.28.28v1.6c0,.16-.13.28-.28.28Z"/><path class="r" d="m99.03,64.73c-.07,0-.13-.02-.19-.07-.12-.11-.13-.28-.02-.4.2-.23.46-.45.75-.66.13-.09.3-.06.39.07.09.13.06.3-.07.39-.26.18-.48.37-.66.57-.05.06-.13.09-.21.09Z"/><path class="r" d="m103.34,69.36s-.05,0-.07,0c-3.22-.85-5.07-2.18-5.07-3.65,0-.05,0-.11,0-.16.01-.15.14-.3.31-.25.15.01.27.15.25.31,0,.04,0,.07,0,.11,0,1.18,1.74,2.34,4.65,3.11.15.04.24.19.2.35-.03.13-.15.21-.27.21Z"/><path class="r" d="m101.21,78.33c-.15,0-.28-.13-.28-.28v-1.06c0-.16.13-.28.28-.28s.28.13.28.28v1.06c0,.16-.13.28-.28.28Z"/><path class="r" d="m101.21,76.34c-.15,0-.28-.13-.28-.28v-1.99c0-.16.13-.28.28-.28s.28.13.28.28v1.99c0,.16-.13.28-.28.28Z"/><path class="r" d="m101.21,73.23c-.15,0-.28-.13-.28-.28v-.88c0-.16.13-.28.28-.28s.28.13.28.28v.88c0,.16-.13.28-.28.28Z"/><path class="s" d="m114.35,68.2c-1.04.14-2.16.2-3.35.2-2.54,0-4.86-.34-6.62-.9-.2-.05-.38-.11-.56-.16-.29-.11-.59-.23-.83-.34-.18-.09-.34-.18-.5-.27-.32-.18-.61-.36-.83-.56l.5-2.25c.34.2.68.38,1.06.56.04,0,.07.02.09.02.05.05.09.07.14.07l.02.02c.29.14.61.27.95.38.18.07.34.14.52.18.02.02.04.02.07.02.32.09.63.2.97.27.11.04.23.07.36.09.41.11.81.18,1.26.25.14.05.29.07.45.07.27.07.54.09.86.11.29.05.59.07.9.07.38.05.79.05,1.19.05,1.13,0,2.21-.09,3.22-.27.04.5.07,1.04.11,1.55.02.29.05.56.05.83Z"/><path class="o" d="m120.31,66.19c-.5.43-1.22.81-2.12,1.13-.74.27-1.6.52-2.54.68-.43.09-.86.16-1.31.2,0-.27-.02-.54-.05-.83-.05-.52-.07-1.06-.11-1.55,2.18-.32,4.12-.99,5.63-1.89l.5,2.27Z"/><path class="k" d="m114.18,65.81c-1.01.18-2.09.27-3.22.27-3.47,0-6.62-.83-8.82-2.16l1.06-4.95c0,1.51,3.49,2.75,7.77,2.75.99,0,1.91-.07,2.77-.18.18,1.35.34,2.79.45,4.28Z"/><path class="l" d="m119.81,63.92c-1.51.9-3.44,1.58-5.63,1.89-.11-1.49-.27-2.93-.45-4.28,2.93-.41,5-1.4,5-2.57l1.08,4.95Z"/><path class="q" d="m118.73,58.97c0,1.51-3.47,2.75-7.77,2.75s-7.77-1.24-7.77-2.75,3.49-2.72,7.77-2.72,7.77,1.24,7.77,2.72Z"/><path class="m" d="m113.75,56.43c1.69.51,2.83,1.46,2.83,2.53s-1.15,2.05-2.84,2.56c2.92-.4,4.99-1.39,4.99-2.56s-2.07-2.14-4.99-2.53Z"/><path class="r" d="m107.22,57.89c-.13,0-.25-.09-.27-.22-.03-.15.06-.3.21-.34.25-.05.5-.1.77-.15.17-.01.3.08.32.23.02.15-.08.3-.23.32-.26.04-.51.09-.74.14-.02,0-.04,0-.06,0Z"/><path class="r" d="m107.57,60.7s-.04,0-.05,0c-1.1-.21-2.95-.72-2.95-1.72,0-.54.54-1,1.59-1.36.15-.05.31.03.36.18.05.15-.03.31-.17.36-.89.31-1.21.64-1.21.83,0,.33.78.84,2.49,1.17.15.03.25.18.22.33-.03.13-.14.23-.28.23Z"/><path class="r" d="m103.5,64.84l-.52,2.16c-.18-.09-.34-.18-.5-.27l.47-2.03c.05-.14.14-.23.25-.23.04,0,.07.02.09.02.05.05.09.07.14.07l.02.02c.05.07.07.16.05.25Z"/><path class="r" d="m103.66,63.25s-.04,0-.06,0c-.15-.04-.25-.19-.21-.34l.22-.93c.04-.15.19-.24.34-.21.15.04.25.19.21.34l-.22.93c-.03.13-.15.22-.27.22Z"/><path class="r" d="m104.67,66.21l-.29,1.28c-.2-.05-.38-.11-.56-.16l.32-1.26c.02-.16.18-.25.34-.23.14.04.25.2.2.36Z"/><path class="r" d="m104.61,65.48s-.04,0-.06,0c-.15-.04-.25-.19-.21-.34l.58-2.45c.04-.15.18-.24.34-.21.15.04.25.19.21.34l-.58,2.45c-.03.13-.15.22-.27.22Z"/><path class="p" d="m120.36,63.81l-.09-.41-.18-.81-.79-3.69c-.09-2.09-4.34-3.22-8.33-3.22s-8.24,1.13-8.33,3.22l-.81,3.74-.18.83-.07.34-.41,1.85c.14.18.27.36.47.52l.5-2.25.2-.95.16-.72.7-3.29c0-1.49,3.49-2.72,7.77-2.72.29,0,.59,0,.88.02.23,0,.45.02.68.04.09,0,.16,0,.25.02.34.02.65.07.97.11.07,0,.14.02.2.02h.07c.25.02.45.07.68.11.38.07.72.16,1.06.25.07.02.11.04.18.07.16.05.29.09.45.14.2.07.41.14.59.23.14.04.27.11.38.16.14.07.25.14.34.2.09.05.18.09.25.16.05.02.09.05.11.09.11.07.23.16.32.27.02.02.05.04.07.07.07.09.11.16.16.23.05.09.09.18.11.27.02.09.04.18.04.27l.72,3.26.16.72.2.97.5,2.27c.2-.16.36-.34.45-.52v-.02l-.41-1.85Z"/><path class="p" d="m121.64,64.82c0,.29-.07.59-.2.83-.11.27-.29.52-.52.72-.14.18-.29.32-.47.41-.63.47-1.46.88-2.43,1.19-.72.25-1.51.43-2.36.59-.41.09-.83.16-1.28.18-1.1.16-2.25.23-3.38.23-2.36,0-4.82-.32-6.75-.9-.18-.07-.38-.11-.54-.18h-.02c-.29-.11-.56-.23-.81-.34-.18-.09-.34-.16-.52-.25-.29-.16-.56-.34-.81-.52-.18-.11-.36-.25-.5-.43-.45-.43-.7-.95-.7-1.53,0-.86.56-1.6,1.49-2.18l-.18.83c-.47.41-.74.88-.74,1.35,0,.29.09.56.27.83.14.18.27.36.47.52.23.2.52.38.83.56.16.09.32.18.5.27.25.11.54.23.83.34.18.05.36.11.56.16,1.76.56,4.07.9,6.62.9,1.19,0,2.32-.07,3.35-.2.45-.05.88-.11,1.31-.2.95-.16,1.8-.41,2.54-.68.9-.32,1.62-.7,2.12-1.13.2-.16.36-.34.45-.52v-.02h.02c.2-.27.29-.54.29-.83,0-.5-.29-.99-.81-1.42l-.18-.81c.97.61,1.55,1.35,1.55,2.23Z"/><path class="p" d="m102.51,62.25l-.16.72c-.27.16-.5.32-.7.5l.18-.83c.2-.14.43-.27.68-.38Z"/><path class="p" d="m120.27,63.4c-.18-.16-.41-.29-.65-.45l-.16-.72c.23.11.45.25.63.36l.18.81Z"/><path class="r" d="m47.98,28.61c-.14,0-.28-.03-.42-.1l-8.09-3.88c-.49-.23-.69-.81-.46-1.3s.81-.69,1.3-.46l8.09,3.88c.49.23.69.81.46,1.3-.17.35-.52.55-.88.55Z"/><path class="r" d="m33.17,21.5c-.14,0-.28-.03-.42-.1l-10.82-5.19c-.49-.23-.69-.81-.46-1.3.23-.49.81-.69,1.3-.46l10.82,5.19c.49.23.69.81.46,1.3-.17.35-.52.55-.88.55Z"/><path class="r" d="m76.27,19.09c-.38.02-.76-.18-.94-.55l-4.85-10.13c-.23-.49-.03-1.07.46-1.3.48-.23,1.07-.03,1.3.46l4.85,10.13c.23.49.03,1.07-.46,1.3-.12.05-.24.09-.36.09Z"/><path class="r" d="m69.1,4.13c-.38.02-.76-.18-.94-.55l-1.05-2.19c-.23-.49-.03-1.07.46-1.3.49-.23,1.07-.03,1.3.46l1.05,2.19c.23.49.03,1.07-.46,1.3-.12.05-.24.09-.36.09Z"/><path class="r" d="m191.72,19.62c-.25.01-.51-.07-.71-.25-.4-.36-.42-.98-.06-1.38l3.11-3.4c.36-.4.98-.42,1.38-.06.4.36.42.98.06,1.38l-3.11,3.4c-.18.2-.42.3-.66.31Z"/><path class="r" d="m183.59,28.48c-.25.01-.51-.07-.71-.25-.4-.36-.42-.98-.06-1.38l4.06-4.43c.37-.4.98-.42,1.38-.06.4.36.42.98.06,1.38l-4.06,4.43c-.18.2-.42.3-.66.31Z"/><path class="r" d="m76.71,95.62c-.14,0-.28-.03-.41-.09-.49-.23-.7-.81-.47-1.29l1.78-3.82c.23-.49.8-.7,1.29-.47.49.23.7.81.47,1.29l-1.78,3.82c-.16.35-.52.56-.88.56Z"/><path class="r" d="m80.48,87.53c-.14,0-.28-.03-.41-.09-.49-.23-.7-.81-.47-1.29l2.41-5.19c.23-.49.81-.7,1.29-.47.49.23.7.81.47,1.29l-2.41,5.19c-.16.35-.52.56-.88.56Z"/><path class="r" d="m137.89,21.94c-.09-.02-.18-.05-.27-.1-.47-.26-.65-.85-.39-1.32l1.6-2.94c.26-.47.85-.65,1.32-.39.47.26.65.85.39,1.32l-1.6,2.94c-.21.39-.64.57-1.05.49Z"/><path class="r" d="m141.57,15.17c-.09-.02-.18-.05-.27-.1-.47-.26-.65-.85-.39-1.32l6.21-11.39c.26-.47.85-.65,1.32-.39.47.26.65.85.39,1.32l-6.21,11.39c-.21.39-.64.57-1.05.49Z"/><path class="r" d="m173.99,96.06c-.21,0-.42-.07-.6-.21l-2.13-1.67c-.42-.33-.5-.94-.17-1.37.33-.43.94-.5,1.37-.17l2.13,1.67c.42.33.5.94.17,1.37-.19.25-.48.37-.77.37Z"/><path class="r" d="m168.3,91.61c-.21,0-.42-.07-.6-.21l-8.35-6.53c-.42-.33-.5-.94-.17-1.37.33-.43.94-.51,1.37-.17l8.35,6.53c.42.33.5.94.17,1.37-.19.25-.48.37-.77.37Z"/><path class="r" d="m12.3,61.41c-.51,0-.94-.4-.97-.92-.03-.54.38-1,.92-1.03l11.55-.65c.52-.06,1,.38,1.03.92s-.38,1-.92,1.03l-11.55.65s-.04,0-.06,0Z"/><path class="r" d="m.97,62.05c-.51,0-.94-.4-.97-.92-.03-.54.38-1,.92-1.03l4.97-.28c.53-.06,1,.38,1.03.92.03.54-.38,1-.92,1.03l-4.97.28s-.04,0-.06,0Z"/><path class="r" d="m231.4,95.91c-.13.01-.26,0-.38-.04l-5.37-1.76c-.51-.17-.79-.72-.62-1.23.17-.51.72-.79,1.23-.62l5.37,1.76c.51.17.79.72.62,1.23-.13.38-.47.64-.85.67Z"/><path class="r" d="m220.66,92.39c-.13.01-.26,0-.38-.04l-11.63-3.81c-.51-.17-.79-.72-.62-1.23s.72-.79,1.23-.62l11.63,3.81c.51.17.79.72.62,1.23-.13.38-.47.64-.85.67Z"/><path class="r" d="m203.09,86.64c-.13.01-.26,0-.38-.04l-4.25-1.39c-.51-.17-.79-.72-.62-1.23.17-.51.72-.79,1.23-.62l4.25,1.39c.51.17.79.72.62,1.23-.13.38-.47.64-.85.67Z"/><path class="r" d="m137.9,100c-.35-.02-.67-.23-.82-.57l-4.76-10.39c-.22-.49,0-1.07.48-1.29.49-.22,1.07,0,1.29.48l4.76,10.39c.22.49,0,1.07-.48,1.29-.15.07-.31.1-.47.09Z"/><path class="r" d="m131.46,85.93c-.35-.02-.67-.23-.82-.57l-1.32-2.89c-.22-.49,0-1.07.48-1.29.49-.22,1.07,0,1.29.48l1.32,2.89c.22.49,0,1.07-.48,1.29-.15.07-.31.1-.47.09Z"/><path class="r" d="m251.71,27.51c-.44.04-.86-.23-1.01-.67-.17-.51.11-1.06.62-1.23l3.4-1.12c.5-.18,1.06.11,1.23.62.17.51-.11,1.06-.62,1.23l-3.4,1.12c-.07.03-.15.04-.22.05Z"/><path class="r" d="m237.63,32.17c-.44.04-.86-.23-1.01-.67-.17-.51.11-1.06.62-1.23l9.89-3.27c.5-.18,1.06.11,1.23.62.17.51-.11,1.06-.62,1.23l-9.89,3.27c-.07.03-.15.04-.22.05Z"/><path class="r" d="m222.91,37.04c-.44.04-.86-.23-1.01-.67-.17-.51.11-1.06.62-1.23l8.33-2.76c.51-.18,1.06.11,1.23.62.17.51-.11,1.06-.62,1.23l-8.33,2.76c-.07.03-.15.04-.22.05Z"/><path class="r" d="m30.56,90.06c-.37,0-.73-.22-.89-.58-.22-.49,0-1.07.49-1.29l13.57-6.07c.5-.22,1.07,0,1.29.49.22.49,0,1.07-.49,1.29l-13.57,6.07c-.13.06-.26.09-.4.09Z"/><path class="r" d="m48.36,82.1c-.37,0-.73-.22-.89-.58-.22-.49,0-1.07.49-1.29l4.23-1.89c.49-.23,1.07,0,1.29.49.22.49,0,1.07-.49,1.29l-4.23,1.89c-.13.06-.26.09-.4.09Z"/></g></svg>